<?xml version="1.0" standalone="no"?>
<!DOCTYPE svg PUBLIC "-//W3C//DTD SVG 20010904//EN"
 "http://www.w3.org/TR/2001/REC-SVG-20010904/DTD/svg10.dtd">
<svg version="1.0" xmlns="http://www.w3.org/2000/svg"
 width="580.000000pt" height="580.000000pt" viewBox="0 0 580.000000 580.000000"
 preserveAspectRatio="xMidYMid meet">
<metadata>
Created by potrace 1.11, written by Peter Selinger 2001-2013
</metadata>
<g transform="translate(0.000000,580.000000) scale(0.100000,-0.100000)"
fill="#000000" stroke="none">
<path d="M4880 4639 c0 -7 -3 -10 -6 -6 -9 8 -46 -32 -39 -43 3 -5 0 -8 -7 -5
-14 5 -41 -42 -32 -56 3 -5 0 -9 -6 -9 -6 0 -8 -4 -5 -10 3 -5 1 -10 -5 -10
-6 0 -8 -4 -5 -10 3 -5 1 -10 -5 -10 -6 0 -8 -4 -5 -10 3 -5 2 -10 -4 -10 -6
0 -8 -7 -5 -15 4 -8 1 -15 -6 -15 -6 0 -9 -4 -5 -9 3 -5 -2 -17 -11 -25 -8 -9
-13 -16 -9 -16 3 0 0 -10 -7 -22 -7 -13 -11 -29 -10 -35 2 -7 -2 -13 -8 -13
-5 0 -10 -7 -10 -15 0 -8 -3 -15 -7 -15 -5 0 -19 -25 -32 -55 -14 -30 -29 -55
-34 -55 -4 0 -6 -4 -3 -9 3 -5 -1 -14 -9 -21 -8 -7 -15 -19 -15 -26 0 -8 -5
-14 -11 -14 -5 0 -8 -4 -5 -9 3 -5 -3 -20 -14 -34 -11 -14 -20 -29 -20 -35 0
-5 -9 -21 -21 -36 -11 -14 -18 -26 -14 -26 3 0 -3 -10 -15 -22 -11 -12 -20
-28 -20 -35 0 -7 -4 -13 -10 -13 -5 0 -10 -6 -10 -13 0 -8 -9 -22 -20 -32 -11
-10 -18 -20 -15 -23 2 -2 -7 -19 -20 -37 -14 -17 -25 -37 -25 -42 0 -6 -7 -14
-16 -17 -8 -3 -12 -10 -9 -16 3 -5 2 -10 -3 -10 -5 0 -17 -16 -26 -35 -9 -19
-21 -35 -27 -35 -6 0 -7 -4 -4 -10 3 -5 3 -10 -2 -10 -4 0 -24 -26 -43 -57
-19 -31 -49 -71 -67 -90 -18 -19 -32 -36 -32 -38 -1 -3 -1 -10 -1 -16 0 -5 -4
-7 -10 -4 -9 6 -14 -8 -11 -27 0 -5 -7 -8 -16 -8 -9 0 -14 -3 -10 -6 3 -3 -12
-24 -34 -47 -21 -23 -39 -45 -39 -49 0 -6 -36 -45 -177 -190 -25 -27 -50 -48
-55 -48 -5 0 -6 -4 -3 -10 3 -5 1 -10 -6 -10 -6 0 -21 -10 -33 -22 -34 -37
-213 -156 -235 -157 -7 -1 -11 -7 -8 -15 4 -10 1 -13 -8 -10 -18 7 -57 -14
-50 -27 4 -5 1 -9 -4 -9 -6 0 -11 5 -11 12 0 6 -7 4 -18 -5 -13 -12 -19 -13
-20 -5 0 7 -3 24 -7 38 -11 40 -12 113 -3 133 5 10 5 17 -2 17 -5 0 -10 7 -10
16 0 8 4 13 8 10 5 -3 8 21 8 52 -1 31 2 60 7 63 12 9 21 92 8 85 -7 -5 -9 -1
-5 8 3 9 9 16 13 16 4 0 7 8 8 18 1 9 4 28 7 42 6 24 6 24 -3 3 -6 -13 -13
-23 -16 -23 -4 0 -5 3 -3 8 2 4 13 25 24 46 14 29 16 40 7 43 -10 4 -10 9 -1
26 7 12 13 29 14 37 1 8 5 24 10 34 5 13 4 17 -4 12 -6 -3 -14 -1 -18 5 -4 7
-3 9 3 6 6 -4 17 1 24 10 12 14 12 16 -1 8 -13 -8 -13 -7 -1 8 11 14 11 17 0
17 -12 0 -12 2 0 9 8 5 11 16 8 25 -4 9 -3 15 1 15 19 -3 25 2 12 11 -9 6 -11
13 -5 18 13 9 18 55 5 47 -6 -3 -10 -1 -10 4 0 6 8 11 18 11 20 0 23 24 7 49
-5 10 -4 12 3 7 13 -8 15 1 12 52 -1 17 3 32 8 32 6 0 9 11 7 25 -1 14 2 25 7
25 6 0 8 6 5 14 -3 7 0 19 6 26 9 10 9 11 -3 5 -13 -8 -13 -7 -1 8 7 9 10 17
6 17 -4 0 -1 8 6 17 8 9 9 14 3 10 -6 -3 -11 0 -11 8 0 8 4 12 8 9 4 -2 11 12
14 33 3 21 9 50 14 64 6 19 4 29 -8 37 -12 9 -13 11 -2 9 9 -1 16 8 17 26 2
15 -2 27 -9 27 -8 0 -8 3 1 9 14 8 16 40 11 164 -1 26 -5 47 -9 47 -4 0 -13
14 -20 30 -7 17 -17 33 -22 36 -6 4 -5 -3 1 -14 8 -14 8 -23 1 -27 -6 -4 -9
-1 -8 7 2 8 -4 12 -17 10 -11 -2 -17 -1 -13 3 4 4 1 14 -7 21 -14 15 -45 9
-45 -8 0 -6 -6 -5 -15 2 -8 7 -12 17 -9 22 3 5 -3 4 -15 -4 -12 -7 -21 -16
-21 -20 0 -5 -7 -8 -16 -8 -8 0 -12 -4 -9 -10 3 -5 1 -10 -5 -10 -6 0 -8 -4
-5 -10 3 -5 -1 -10 -9 -10 -9 0 -16 -7 -16 -16 0 -8 -4 -13 -9 -10 -10 7 -21
-17 -21 -47 0 -16 -3 -18 -9 -9 -6 11 -10 10 -15 -4 -4 -10 -1 -21 6 -27 9 -6
8 -7 -5 -3 -14 4 -20 0 -24 -15 -3 -12 -11 -18 -20 -15 -11 4 -11 1 -3 -14 8
-15 6 -24 -9 -39 -13 -13 -16 -21 -8 -25 7 -2 4 -5 -7 -5 -15 -1 -16 -4 -7
-15 7 -9 8 -17 2 -20 -5 -3 -12 0 -14 6 -5 12 -11 -16 -8 -34 0 -5 -3 -8 -9
-8 -5 0 -7 -7 -4 -15 5 -12 2 -13 -12 -8 -18 7 -18 6 -1 -12 18 -18 18 -19 -1
-29 -10 -6 -18 -19 -17 -28 2 -9 -4 -19 -12 -22 -12 -5 -13 -9 -4 -20 13 -15
-1 -32 -18 -21 -5 3 -13 1 -16 -5 -4 -6 -1 -9 7 -8 12 3 13 -1 10 -35 -1 -8
-13 -20 -27 -27 -14 -7 -23 -15 -20 -18 2 -3 13 1 22 9 17 13 17 13 4 -4 -8
-10 -16 -28 -16 -39 -1 -12 -8 -26 -16 -32 -19 -15 -21 -49 -2 -42 8 4 11 1 7
-5 -3 -6 -15 -8 -26 -6 -16 5 -17 3 -6 -11 11 -13 11 -15 -4 -9 -12 4 -18 1
-18 -9 0 -8 5 -12 10 -9 13 8 13 -1 -1 -26 -5 -11 -15 -17 -21 -13 -7 5 -8 1
-1 -11 12 -21 5 -67 -10 -58 -6 4 -8 0 -4 -10 4 -10 1 -17 -6 -17 -8 0 -8 -3
2 -9 9 -6 10 -11 2 -15 -6 -4 -11 -12 -11 -17 0 -6 5 -7 12 -3 7 4 8 3 4 -5
-4 -6 -11 -9 -16 -6 -4 3 -11 -2 -14 -11 -4 -10 -2 -13 6 -8 8 5 9 2 5 -10 -4
-10 -7 -24 -7 -33 0 -10 -6 -13 -17 -8 -14 5 -15 4 -6 -6 10 -10 9 -15 -5 -26
-9 -8 -11 -12 -4 -8 7 4 12 0 12 -9 0 -9 -4 -16 -8 -16 -5 0 -9 -6 -9 -12 0
-7 -4 -26 -8 -42 -6 -21 -5 -27 4 -22 6 4 8 12 5 18 -4 7 -2 8 4 4 9 -5 9 -12
0 -26 -7 -10 -16 -16 -21 -13 -5 3 -4 -3 2 -14 6 -12 6 -24 1 -29 -5 -5 -10
-26 -12 -47 -1 -20 -5 -37 -8 -37 -3 0 -6 -19 -7 -43 -2 -38 -9 -82 -13 -82
-1 0 -3 -7 -5 -15 -5 -25 -66 -149 -76 -155 -5 -4 -7 -11 -4 -16 4 -5 1 -9 -4
-9 -6 0 -11 -6 -11 -12 0 -7 -16 -35 -36 -63 -19 -27 -43 -62 -52 -77 -9 -16
-20 -28 -24 -28 -5 0 -8 -7 -8 -16 0 -8 -4 -13 -9 -10 -8 6 -36 -43 -32 -57 1
-5 -3 -6 -8 -3 -5 4 -18 -5 -29 -19 -11 -14 -26 -25 -33 -25 -7 0 -10 -3 -6
-6 7 -8 -4 -20 -57 -59 -22 -17 -55 -45 -73 -63 -18 -18 -33 -29 -33 -25 0 3
-13 -6 -30 -22 -16 -16 -30 -25 -30 -19 0 5 -6 2 -13 -7 -7 -9 -16 -17 -22
-19 -5 -1 -14 -4 -20 -5 -38 -11 -46 -16 -39 -27 5 -8 2 -9 -9 -5 -10 3 -17 2
-17 -3 0 -5 -9 -7 -20 -5 -11 2 -20 0 -20 -6 0 -5 -7 -9 -15 -9 -8 0 -15 -4
-15 -10 0 -5 -7 -7 -15 -4 -8 4 -21 2 -28 -4 -6 -5 -34 -13 -62 -18 -63 -10
-235 -12 -229 -3 2 4 -7 9 -21 11 -13 3 -22 1 -19 -3 6 -10 -13 -3 -88 36 -32
16 -58 33 -58 38 0 5 8 3 18 -4 15 -13 16 -12 4 3 -8 9 -19 15 -27 12 -7 -3
-16 0 -21 7 -5 8 -3 10 6 4 8 -5 11 -4 6 3 -4 6 -12 9 -19 7 -7 -3 -22 3 -34
13 -17 12 -20 21 -13 32 7 11 10 11 10 2 0 -9 5 -10 19 -3 10 6 21 8 24 4 3
-3 14 -2 24 2 10 4 25 9 33 11 39 7 50 11 56 16 3 4 13 4 22 1 8 -4 13 -2 10
3 -3 5 0 15 8 22 8 7 14 9 14 3 0 -5 6 -8 13 -7 15 2 90 47 98 59 3 5 9 7 12
5 9 -6 109 76 200 165 49 48 86 87 81 87 -5 0 -1 5 9 11 9 5 17 16 17 24 0 8
5 17 12 21 7 5 8 3 3 -6 -5 -9 -4 -11 3 -6 7 4 12 11 12 17 0 5 17 33 37 61
20 29 36 58 36 65 0 7 5 13 10 13 5 0 7 7 3 15 -3 8 -2 14 2 12 4 -1 7 0 7 3
0 3 10 20 23 38 13 17 20 32 16 32 -3 0 -1 6 5 13 6 8 8 17 4 20 -3 4 -1 7 6
7 8 0 11 6 7 16 -4 10 -2 13 6 8 7 -5 9 1 6 19 -4 18 -1 24 9 20 7 -3 14 2 15
11 0 9 1 22 2 29 1 6 6 15 11 19 6 4 10 11 11 15 5 38 18 73 27 73 6 0 7 3 4
7 -4 3 -3 11 3 17 5 7 11 26 15 43 3 18 10 44 15 58 6 15 8 31 4 36 -3 5 1 9
8 9 9 0 9 3 -2 10 -10 6 -11 10 -2 10 7 0 12 13 12 30 0 17 4 30 8 30 5 0 8
10 7 23 -1 12 0 26 3 32 17 29 24 176 10 193 -10 13 -10 14 0 8 6 -4 12 -2 12
3 0 6 -5 11 -12 11 -6 0 -3 7 8 16 10 8 15 13 9 11 -6 -3 -10 40 -10 120 0 69
-3 127 -8 130 -4 2 -5 9 -1 14 3 5 1 16 -6 24 -6 8 -7 16 -2 19 13 8 -5 88
-21 98 -9 6 -8 8 2 8 11 0 12 3 4 11 -6 6 -9 18 -6 25 3 8 1 14 -5 14 -6 0 -9
12 -7 26 1 15 -3 28 -12 31 -8 3 -13 14 -10 24 3 13 0 19 -10 19 -10 0 -14 6
-10 19 3 12 -1 22 -9 25 -8 3 -14 14 -14 24 0 23 -23 45 -36 34 -4 -4 -2 2 6
12 8 11 10 17 3 13 -6 -4 -15 -1 -20 7 -8 14 -78 66 -89 66 -3 0 -20 10 -37
22 -17 12 -38 24 -47 26 -37 8 -66 7 -79 -3 -11 -7 -13 -7 -8 2 5 8 0 11 -13
10 -11 -1 -20 -5 -20 -9 0 -4 -9 -5 -20 -3 -11 2 -20 0 -20 -4 0 -5 -11 -7
-25 -6 -13 2 -35 -5 -47 -15 -13 -9 -27 -19 -33 -20 -32 -8 -37 -13 -23 -22
10 -7 9 -8 -4 -4 -22 7 -50 -3 -42 -15 3 -5 0 -9 -7 -9 -7 0 -27 -11 -46 -26
-18 -14 -33 -22 -33 -18 0 5 -11 -7 -25 -26 -14 -19 -25 -31 -25 -27 0 3 -10
-4 -23 -16 -18 -17 -21 -25 -13 -36 9 -12 8 -13 -5 -9 -24 9 -66 -33 -190
-189 -34 -43 -64 -80 -68 -83 -4 -3 -12 -17 -18 -32 -7 -16 -17 -28 -23 -28
-6 0 -9 -4 -6 -9 3 -5 -1 -12 -10 -15 -8 -3 -13 -10 -10 -15 3 -5 -1 -12 -10
-15 -8 -3 -12 -10 -9 -16 3 -5 -1 -10 -9 -10 -10 0 -13 -6 -9 -17 4 -9 2 -14
-3 -10 -6 3 -16 -3 -23 -15 -10 -16 -10 -19 1 -13 7 3 5 0 -4 -8 -10 -8 -15
-17 -11 -20 3 -4 -2 -9 -11 -13 -9 -3 -13 -10 -10 -15 3 -5 0 -9 -7 -9 -7 0
-9 -3 -6 -7 4 -3 -1 -12 -11 -19 -14 -11 -14 -15 -4 -22 11 -7 8 -11 -8 -15
-12 -3 -19 -10 -15 -16 3 -6 -1 -11 -9 -11 -9 0 -16 -5 -16 -11 0 -5 6 -7 13
-3 6 4 0 -5 -15 -21 -16 -15 -28 -31 -28 -35 0 -12 -29 -6 -43 10 -7 8 -7 10
-1 7 7 -4 17 0 24 8 8 9 8 15 2 15 -11 0 -10 45 0 56 4 3 2 19 -2 35 -5 18 -5
29 1 29 6 0 7 5 4 10 -4 6 -2 17 5 25 8 9 8 15 0 20 -6 4 -8 16 -5 26 4 11 1
27 -7 36 -11 15 -11 16 5 10 15 -6 16 -4 7 13 -7 13 -7 21 0 25 6 4 8 11 4 16
-3 5 -10 7 -15 4 -5 -3 -6 1 -3 9 3 9 9 16 13 16 3 0 6 27 6 59 1 39 -3 57
-10 53 -6 -3 -5 0 1 9 13 16 13 207 0 227 -4 7 -2 12 6 12 8 0 9 3 3 8 -5 4
-11 20 -13 37 -2 16 -8 35 -13 41 -7 8 -6 14 3 17 11 4 10 6 0 6 -7 1 -10 6
-7 11 3 6 2 10 -4 10 -5 0 -13 9 -16 20 -4 11 -11 18 -16 15 -5 -4 -9 1 -9 9
0 8 -5 18 -10 21 -6 4 -10 3 -9 -2 4 -24 -4 -25 -22 -3 -11 14 -17 18 -13 10
7 -13 5 -13 -8 -2 -13 10 -17 10 -20 0 -3 -7 -18 -12 -35 -10 -26 2 -33 -3
-45 -28 -7 -16 -17 -30 -22 -30 -4 0 -5 -7 -2 -16 3 -8 2 -12 -4 -9 -16 10
-30 -37 -16 -54 9 -12 8 -13 -3 -6 -11 6 -13 2 -9 -19 4 -19 2 -24 -6 -17 -8
7 -11 0 -11 -25 1 -19 -3 -34 -8 -34 -5 0 -6 -7 -3 -16 3 -9 2 -12 -5 -9 -6 4
-7 -3 -3 -21 5 -19 4 -25 -4 -20 -8 5 -10 1 -5 -10 4 -11 -1 -22 -12 -30 -18
-14 -18 -14 1 -14 10 0 15 -4 9 -8 -6 -4 -11 -22 -12 -40 -1 -19 -9 -40 -19
-46 -10 -8 -13 -15 -7 -19 13 -8 4 -57 -11 -57 -7 0 -7 -3 1 -8 15 -10 6 -82
-11 -82 -6 0 -4 -5 4 -10 12 -8 12 -10 1 -10 -11 0 -11 -3 0 -17 8 -9 9 -14 3
-10 -7 4 -15 0 -18 -9 -9 -23 -8 -26 6 -18 7 4 2 -6 -10 -23 -16 -23 -19 -34
-11 -39 8 -5 9 -3 4 6 -5 8 -4 11 3 6 6 -4 9 -13 6 -21 -4 -8 -11 -12 -18 -8
-6 4 -5 -1 3 -10 9 -11 10 -17 2 -17 -6 0 -11 -5 -11 -11 0 -5 4 -8 9 -5 5 4
7 -3 4 -14 -3 -11 -9 -20 -14 -20 -5 0 -4 -12 1 -26 9 -22 8 -25 -5 -20 -21 8
-19 -14 3 -30 13 -11 14 -13 1 -9 -10 4 -16 0 -16 -9 0 -8 5 -12 11 -9 6 4 5
0 -1 -9 -7 -8 -10 -18 -6 -22 4 -3 -2 -13 -13 -22 -17 -14 -17 -15 -1 -10 15
5 16 3 7 -14 -6 -11 -8 -24 -5 -29 3 -5 -1 -12 -7 -14 -10 -4 -9 -8 2 -16 13
-9 12 -11 -3 -11 -15 0 -16 -3 -6 -22 9 -17 9 -23 0 -26 -6 -2 -9 -8 -5 -13 3
-5 2 -15 -3 -21 -4 -7 -8 -37 -9 -66 -1 -29 -5 -56 -9 -60 -5 -4 -5 -1 0 7 6
10 4 12 -4 7 -9 -6 -9 -11 0 -22 9 -11 8 -14 -2 -14 -11 0 -11 -2 0 -9 12 -7
12 -13 3 -24 -7 -7 -9 -17 -5 -20 3 -4 2 -7 -4 -7 -6 0 -8 -11 -5 -25 2 -14
-2 -33 -9 -42 -8 -10 -9 -14 -2 -10 8 5 11 0 10 -13 -1 -11 -6 -19 -12 -16 -7
2 -12 -2 -12 -10 0 -7 4 -11 8 -9 4 3 9 -2 13 -10 3 -8 0 -17 -5 -21 -6 -3 -9
-17 -6 -30 3 -17 0 -24 -12 -25 -10 0 -12 -2 -3 -6 14 -6 16 -33 2 -33 -6 0
-8 -11 -4 -26 5 -21 4 -25 -7 -20 -8 4 -5 0 5 -8 20 -16 20 -16 0 -16 -16 0
-17 -2 -4 -10 12 -8 12 -12 3 -18 -9 -6 -10 -17 -3 -41 7 -26 6 -30 -3 -22 -9
7 -13 5 -13 -10 0 -10 4 -19 9 -19 4 0 5 -5 2 -10 -4 -6 -12 -7 -18 -3 -7 4
-6 0 2 -10 7 -9 9 -17 4 -17 -5 0 -9 -8 -9 -19 0 -11 5 -17 13 -14 9 4 11 0 7
-11 -3 -9 -10 -14 -14 -11 -5 3 -12 0 -16 -6 -4 -7 -3 -9 3 -6 6 4 13 -2 16
-12 3 -15 1 -18 -12 -14 -13 5 -14 3 -4 -7 10 -11 9 -18 -5 -33 -16 -19 -16
-20 5 -8 32 16 41 14 15 -5 -13 -9 -21 -22 -18 -30 3 -8 0 -14 -6 -14 -6 0 -3
-10 8 -22 10 -12 13 -18 7 -14 -7 4 -13 3 -13 -3 0 -5 6 -12 13 -14 7 -3 6 -6
-5 -6 -9 -1 -20 -6 -24 -13 -5 -8 -2 -9 9 -5 10 3 17 2 17 -3 0 -6 -4 -10 -9
-10 -5 0 -11 -7 -15 -15 -3 -8 -2 -14 2 -12 4 1 7 -3 7 -8 0 -6 -5 -9 -11 -9
-8 1 -9 -7 -4 -27 5 -16 5 -31 0 -34 -5 -3 -8 -13 -8 -23 1 -9 -2 -27 -6 -39
-5 -16 -2 -22 10 -25 16 -3 17 -4 1 -20 -9 -9 -17 -26 -17 -38 0 -12 -4 -19
-8 -16 -5 3 -9 -1 -9 -9 0 -8 3 -15 7 -15 3 0 6 -9 7 -20 1 -13 -4 -20 -15
-20 -15 -1 -15 -2 -2 -13 16 -13 26 -42 11 -33 -11 7 -23 -19 -13 -29 10 -10
8 -39 -3 -47 -6 -5 -4 -8 4 -8 11 0 10 -4 -5 -16 -10 -8 -13 -13 -7 -9 16 8
17 -7 1 -23 -7 -7 -8 -12 -2 -12 5 0 10 -9 10 -19 0 -11 -4 -17 -9 -14 -5 3
-7 0 -5 -8 3 -8 1 -22 -3 -31 -6 -10 -5 -19 1 -23 6 -4 4 -15 -6 -31 -15 -22
-15 -24 2 -24 16 0 17 -2 4 -10 -8 -5 -11 -10 -6 -10 5 0 3 -7 -4 -16 -8 -8
-9 -14 -4 -13 20 4 28 -2 14 -11 -8 -5 -15 -19 -17 -32 -9 -88 -9 -104 1 -110
8 -5 7 -8 -2 -8 -7 0 -10 -5 -6 -11 3 -6 0 -15 -7 -20 -12 -7 -12 -9 0 -9 11
0 11 -3 1 -15 -10 -12 -10 -15 0 -15 10 0 10 -3 0 -15 -7 -9 -10 -18 -7 -22 4
-3 1 -13 -6 -21 -8 -11 -8 -13 0 -9 8 5 10 -5 6 -35 -2 -24 -5 -68 -7 -99 -2
-31 -6 -61 -10 -67 -4 -7 -2 -13 3 -13 6 -1 14 -2 19 -4 51 -14 62 -18 58 -22
-5 -5 53 -69 60 -66 2 1 19 -4 39 -13 19 -8 35 -11 35 -7 0 5 5 1 10 -7 8 -12
10 -12 10 -1 0 10 3 11 13 3 10 -9 19 -8 35 3 15 11 23 12 28 4 5 -8 3 -9 -6
-4 -9 6 -11 4 -5 -5 6 -10 12 -8 27 9 10 13 18 20 18 17 0 -4 11 5 25 20 14
15 25 31 25 35 0 5 7 5 17 2 11 -4 14 -3 9 5 -4 7 -2 12 3 12 6 0 11 -6 11
-12 0 -9 3 -8 9 2 6 8 7 18 4 24 -3 5 -2 6 4 3 13 -8 45 31 37 45 -5 7 -2 8 6
3 10 -6 12 -3 7 14 -4 16 -2 21 7 18 7 -3 13 1 13 9 0 8 -5 14 -11 14 -6 0 -3
5 6 11 10 5 15 16 12 24 -4 8 -1 15 4 15 6 0 9 10 7 22 -3 12 1 26 8 30 9 6 9
8 -1 8 -8 0 -10 5 -5 12 10 17 13 35 16 85 1 23 5 39 9 37 5 -3 8 0 8 5 0 6
-4 11 -10 11 -5 0 -10 5 -10 11 0 5 5 7 10 4 6 -3 10 1 10 9 0 9 -6 16 -12 16
-8 0 -9 3 -3 8 17 12 34 91 21 96 -7 3 -6 5 2 5 10 1 10 5 0 21 -9 14 -10 23
-3 28 6 4 10 14 10 22 -1 8 3 21 9 28 6 9 6 12 -4 10 -7 -2 -15 3 -18 11 -2 8
0 11 6 7 5 -3 12 1 16 9 6 18 1 19 -25 5 -13 -7 -19 -7 -19 0 0 5 6 10 13 10
8 0 22 10 33 22 15 19 16 20 2 9 -11 -8 -18 -9 -18 -3 0 6 5 14 11 18 6 3 9
23 7 44 -2 22 1 36 6 33 5 -4 7 1 3 10 -3 9 -1 18 6 21 9 3 8 5 -1 5 -7 1 -11
5 -8 9 11 18 14 62 5 62 -6 0 -7 5 -4 10 4 6 11 7 17 4 7 -5 8 -2 2 7 -13 21
-14 39 -1 39 7 0 4 5 -5 11 -9 5 -15 16 -12 24 4 8 9 13 13 10 4 -2 8 3 8 11
0 9 -6 13 -16 9 -15 -5 -15 -4 0 7 17 14 17 15 22 93 1 28 7 56 11 64 6 9 5
12 -1 8 -5 -3 -10 0 -10 7 0 11 4 12 18 3 10 -6 15 -15 13 -19 -3 -5 2 -11 10
-14 9 -3 16 -13 16 -21 0 -8 4 -12 9 -8 5 3 12 -4 16 -15 3 -11 13 -20 21 -20
8 0 12 -4 9 -10 -3 -5 0 -10 7 -10 8 0 20 -9 28 -20 8 -11 18 -20 23 -20 5 0
28 -20 52 -44 24 -25 45 -42 48 -39 3 3 12 -4 19 -16 7 -12 18 -21 25 -21 7 0
16 -6 20 -13 14 -22 92 -69 103 -62 6 3 9 1 8 -7 -3 -14 156 -98 192 -101 11
-1 20 -4 20 -7 0 -7 2 -8 86 -13 34 -3 66 -7 72 -11 6 -3 13 -3 16 2 3 5 19 7
37 4 24 -3 30 -1 24 8 -6 9 -3 9 13 1 13 -7 23 -7 27 -1 3 5 12 7 20 3 8 -3
15 -1 15 4 0 5 8 10 18 11 52 5 102 22 102 35 0 6 3 7 6 4 7 -7 84 31 95 46 3
5 9 7 12 5 4 -1 16 5 27 14 11 10 25 18 31 18 5 0 7 5 3 12 -4 7 -3 8 4 4 6
-4 20 2 32 14 11 11 21 19 23 18 4 -5 81 57 124 100 23 23 45 42 47 42 8 0 84
78 136 139 25 29 51 59 58 66 6 8 12 18 12 24 0 6 5 11 10 11 6 0 10 5 10 11
0 6 6 17 13 24 30 34 35 43 30 49 -4 3 -1 6 5 6 7 0 12 5 12 11 0 6 7 17 15
26 8 8 13 19 9 24 -3 5 2 12 10 15 9 3 14 10 11 14 -3 4 1 10 9 13 7 3 13 0
13 -6 -1 -38 4 -49 19 -43 13 5 14 4 6 -7 -7 -8 -9 -17 -5 -20 3 -4 12 1 20
11 13 15 13 15 7 -7 -3 -13 -2 -21 3 -18 4 3 15 0 23 -6 17 -13 26 -42 11 -33
-5 4 -12 2 -16 -4 -3 -5 -1 -10 5 -10 6 0 9 -4 6 -9 -3 -5 1 -12 10 -15 8 -3
12 -2 9 4 -3 6 -1 10 4 10 6 0 11 -5 11 -11 0 -22 102 -109 158 -135 43 -20
74 -27 134 -29 43 -1 81 1 84 6 3 5 15 9 27 10 12 0 54 18 92 40 39 22 78 42
88 45 9 4 17 11 17 17 0 6 3 8 6 5 3 -3 16 4 28 16 13 11 47 41 76 66 29 25
67 60 84 79 17 19 43 46 59 59 20 19 24 28 15 34 -10 6 -9 8 2 8 20 0 82 59
75 71 -4 5 -1 9 5 9 6 0 8 4 5 10 -3 6 1 7 9 4 9 -3 16 -1 16 4 0 6 11 23 25
38 13 14 22 31 18 37 -3 6 -1 7 5 3 6 -3 22 12 36 36 14 24 26 39 26 33 1 -5
8 2 16 18 8 15 19 27 25 27 6 0 8 4 5 9 -3 5 0 11 8 14 8 3 22 22 32 42 9 20
23 39 31 42 7 3 13 10 13 17 0 6 16 31 35 55 20 25 38 55 41 68 4 13 11 27 18
31 6 4 22 28 36 55 13 26 28 47 33 47 4 0 5 5 2 10 -3 6 -1 10 4 10 6 0 11 6
11 14 0 7 7 19 15 26 8 6 14 15 13 18 -4 14 14 52 23 52 6 0 7 5 4 10 -3 6 1
10 10 10 13 0 14 4 4 21 -6 12 -7 19 -1 15 14 -8 35 20 26 35 -5 8 -3 9 6 4
10 -6 12 -4 7 8 -3 8 0 21 8 27 24 20 23 -4 -4 -60 -14 -31 -28 -64 -29 -75
-2 -11 -8 -25 -13 -32 -6 -6 -8 -24 -6 -40 2 -15 -2 -40 -10 -55 -7 -15 -13
-30 -13 -33 0 -3 -7 -19 -16 -36 -8 -17 -13 -33 -10 -37 3 -3 6 1 6 8 0 7 2
11 5 8 10 -10 -7 -38 -19 -31 -8 4 -8 3 0 -6 14 -16 6 -53 -10 -44 -6 3 -8 3
-4 -2 4 -4 2 -15 -5 -23 -10 -13 -9 -15 3 -8 8 4 6 0 -4 -8 -15 -12 -16 -16
-5 -16 11 0 11 -2 1 -8 -13 -9 -22 -37 -27 -82 -1 -14 -7 -38 -13 -53 -7 -16
-12 -33 -12 -38 0 -6 -6 -7 -12 -3 -10 6 -10 4 0 -7 17 -18 15 -30 -3 -23 -12
5 -14 2 -8 -12 6 -17 5 -18 -12 -4 -18 15 -18 14 -1 -12 12 -19 14 -28 5 -33
-6 -4 -16 -1 -21 6 -7 10 -8 9 -3 -6 18 -51 18 -56 -1 -48 -17 6 -18 5 -4 -12
11 -14 12 -17 1 -11 -9 6 -12 5 -9 -5 2 -7 -3 -20 -12 -29 -9 -8 -11 -12 -5
-8 23 15 24 -5 2 -24 -12 -11 -17 -17 -11 -14 7 3 15 -1 18 -10 9 -24 7 -31
-5 -14 -9 12 -10 11 -6 -7 3 -13 0 -26 -5 -30 -7 -4 -8 -1 -3 7 6 9 4 11 -4 6
-7 -5 -10 -15 -7 -23 3 -8 2 -12 -3 -9 -5 3 -12 -1 -15 -10 -3 -8 -2 -12 4 -9
21 13 8 -10 -17 -31 -20 -16 -23 -23 -13 -29 8 -5 11 -4 6 3 -3 6 -2 13 3 16
5 4 8 -2 7 -11 -2 -9 -7 -18 -13 -20 -6 -2 -8 -15 -5 -30 4 -20 2 -24 -8 -18
-10 6 -12 4 -7 -9 5 -13 3 -17 -7 -13 -11 4 -13 -1 -9 -23 2 -16 -3 -43 -12
-59 -12 -24 -12 -31 -3 -31 9 0 9 -3 -2 -10 -9 -6 -17 -5 -21 1 -3 6 -9 1 -12
-11 -3 -12 -10 -19 -16 -15 -6 3 -11 1 -11 -5 0 -6 -5 -8 -10 -5 -6 4 -16 3
-23 -2 -7 -5 -31 -15 -54 -23 -24 -7 -43 -17 -43 -22 0 -5 -4 -7 -8 -4 -5 3
-21 -1 -35 -9 -15 -8 -31 -15 -35 -17 -4 -2 -6 -7 -4 -13 2 -5 -2 -5 -9 2 -7
7 -18 8 -28 3 -9 -5 -35 -17 -58 -28 -23 -10 -39 -22 -36 -26 4 -4 -1 -4 -11
0 -15 6 -17 4 -11 -6 5 -9 4 -11 -4 -6 -6 4 -23 0 -36 -8 -14 -9 -25 -13 -25
-10 0 4 -9 -1 -20 -11 -11 -10 -20 -15 -20 -11 0 3 -11 -1 -25 -10 -14 -9 -25
-14 -25 -10 0 3 -8 -1 -17 -9 -10 -8 -22 -15 -26 -15 -4 1 -27 -13 -49 -29
-23 -17 -47 -31 -54 -31 -6 0 -14 -7 -18 -15 -3 -8 -13 -15 -21 -15 -9 0 -14
-4 -10 -9 3 -5 -3 -12 -12 -15 -10 -3 -35 -22 -56 -41 -21 -19 -42 -35 -48
-35 -5 0 -8 -6 -7 -12 2 -7 -3 -12 -10 -10 -8 1 -11 -2 -7 -7 3 -6 -4 -15 -16
-21 -11 -7 -18 -14 -15 -17 3 -3 -6 -14 -20 -25 -13 -11 -24 -25 -23 -31 3
-27 -2 -36 -18 -31 -10 3 -7 -1 6 -9 20 -12 21 -15 7 -20 -10 -4 -15 -3 -11 3
9 15 -4 12 -20 -4 -11 -10 -11 -16 -2 -26 9 -10 9 -11 -2 -5 -11 6 -13 4 -8
-8 3 -9 3 -16 -1 -16 -28 4 -34 -2 -16 -16 11 -8 14 -15 7 -15 -7 0 -13 -7
-13 -16 0 -8 -4 -13 -8 -10 -5 3 -9 0 -10 -7 -1 -14 -10 -52 -12 -52 -1 0 -3
-10 -6 -23 -3 -17 0 -21 8 -16 7 4 5 -2 -4 -13 -21 -23 -24 -38 -5 -27 8 5 8
2 -2 -9 -11 -14 -11 -17 0 -17 10 0 11 -2 2 -8 -23 -14 1 -142 26 -142 6 0 8
-7 5 -15 -4 -8 -1 -15 5 -15 6 0 11 -7 11 -15 0 -8 3 -15 8 -15 4 0 18 -10 32
-21 14 -11 19 -17 11 -13 -9 5 -12 3 -7 -4 4 -7 14 -12 22 -12 8 0 14 -7 14
-15 0 -8 5 -15 11 -15 6 0 27 -14 46 -30 18 -17 38 -30 44 -30 6 0 17 -7 26
-15 9 -10 23 -13 35 -9 14 4 18 2 14 -5 -4 -6 -1 -11 8 -11 8 0 16 -5 18 -10
2 -6 18 -11 36 -13 17 -1 32 -4 32 -7 0 -7 6 -7 120 -13 55 -3 90 -1 99 7 12
9 13 8 6 -4 -6 -12 -5 -12 5 -3 7 6 19 9 28 6 11 -5 13 -3 7 7 -6 10 -3 12 15
7 13 -3 33 1 46 10 13 8 24 12 24 8 0 -5 9 0 20 10 11 10 20 14 20 10 0 -4 8
-1 18 7 9 8 37 26 62 40 25 15 56 35 70 46 86 69 128 109 129 120 1 6 6 12 11
12 6 0 10 7 10 16 0 8 4 13 9 10 13 -9 74 71 65 85 -4 7 -3 9 4 5 5 -3 20 10
32 29 12 19 26 35 31 35 6 0 8 4 4 9 -3 5 -1 13 5 16 8 5 7 11 -1 21 -9 12 -9
13 3 9 15 -6 44 28 50 57 2 7 5 15 8 18 15 14 40 61 40 75 0 8 5 15 11 15 5 0
7 5 4 10 -3 6 -1 10 4 10 6 0 11 9 11 20 0 11 6 20 13 20 8 0 7 4 -3 10 -13 8
-12 10 3 10 14 0 24 21 15 33 -2 2 5 11 15 21 9 10 15 22 12 27 -4 5 -1 9 5 9
6 0 9 4 5 9 -3 5 0 13 6 16 5 4 8 13 5 21 -3 8 1 14 8 14 15 0 16 16 3 37 -5
9 -3 11 6 7 19 -7 40 39 24 55 -8 8 -7 11 5 11 12 0 15 6 11 22 -3 14 -1 18 4
11 5 -7 14 3 25 30 l18 42 -20 -25 -20 -25 12 33 c7 17 18 32 25 32 7 0 12 3
11 8 0 4 2 15 5 25 8 20 14 38 16 52 2 6 10 18 18 28 15 16 15 17 -2 17 -18 0
-18 1 1 15 10 8 15 15 11 15 -4 0 -3 9 3 20 11 21 130 106 143 102 4 -1 7 2 7
7 0 4 20 21 45 37 25 15 45 32 45 36 0 4 5 8 11 8 6 0 21 9 33 19 11 11 45 42
75 68 71 63 227 218 270 268 45 53 104 143 120 181 16 40 5 80 -22 88 -17 4
-40 -12 -107 -77 -47 -46 -103 -99 -124 -118 -22 -19 -57 -51 -79 -71 -21 -21
-43 -38 -48 -38 -5 0 -9 -4 -9 -8 0 -5 -30 -30 -67 -57 -38 -27 -83 -62 -101
-77 -18 -15 -39 -28 -47 -28 -17 0 -20 31 -6 46 5 5 11 23 13 39 1 17 7 33 12
37 6 4 4 14 -5 24 -8 10 -9 15 -3 11 7 -4 15 0 18 9 4 9 2 13 -5 8 -6 -3 -4 5
5 18 9 14 13 28 9 31 -3 4 -2 7 4 7 5 0 9 10 8 23 -1 12 2 25 7 28 5 3 10 19
12 35 1 16 5 34 9 41 4 6 2 15 -4 19 -9 5 -7 11 6 21 12 8 14 13 6 13 -11 0
-11 3 -1 15 10 12 10 15 -1 15 -8 0 -6 5 6 13 13 10 15 16 6 21 -9 6 -8 11 3
19 9 7 18 27 20 45 2 18 6 36 10 39 3 4 -1 18 -11 32 -15 24 -15 25 0 12 15
-12 17 -11 17 3 0 9 -4 16 -9 16 -5 0 -7 9 -4 21 4 13 11 18 21 14 12 -4 11 0
-4 16 -10 12 -14 19 -7 16 18 -11 27 12 12 29 -11 13 -10 18 4 26 10 5 15 13
12 18 -3 5 0 12 6 16 8 5 7 9 -2 14 -9 6 -10 12 -2 22 16 21 22 57 9 61 -8 3
-7 9 3 18 12 12 13 12 6 -1 -5 -9 -4 -12 1 -7 12 12 12 30 -1 40 -7 6 -6 10 3
14 6 2 12 20 12 38 0 19 4 36 8 39 4 2 8 30 7 60 0 31 4 56 8 56 5 0 6 17 4
37 -3 21 -1 43 5 50 6 7 8 28 6 48 -2 19 0 36 4 37 13 5 16 61 5 76 -6 8 -5
12 4 12 10 0 10 3 1 12 -13 13 -16 32 -4 24 9 -5 9 -2 14 104 2 41 7 81 12 89
6 9 5 12 0 8 -9 -5 -12 32 -13 161 0 34 -4 51 -11 47 -5 -3 -10 0 -10 8 0 8
-7 18 -16 21 -8 3 -13 10 -10 14 3 5 -1 9 -9 9 -8 0 -12 -4 -9 -9 3 -4 -2 -5
-11 -2 -9 4 -13 9 -11 12 3 3 -2 11 -11 17 -14 10 -22 10 -42 -4 -14 -9 -22
-11 -18 -4 4 6 3 14 -3 18 -5 3 -10 1 -10 -6z m-2784 -269 c8 0 14 -9 14 -20
0 -11 5 -20 11 -20 5 0 8 -4 4 -9 -3 -5 2 -17 11 -25 11 -12 12 -16 2 -16 -10
0 -11 -2 0 -8 7 -5 10 -16 6 -25 -3 -10 -1 -17 6 -17 6 0 8 -4 5 -10 -3 -5 2
-21 11 -35 16 -24 16 -25 -1 -19 -16 7 -16 5 1 -22 11 -15 13 -25 7 -21 -19
12 -16 -3 5 -26 9 -11 11 -17 5 -13 -12 7 -19 -13 -13 -39 2 -9 1 -93 -2 -132
0 -10 -5 -24 -11 -30 -6 -9 -5 -13 4 -13 9 0 10 -3 4 -8 -6 -4 -11 -29 -10
-57 0 -39 -3 -49 -15 -47 -12 3 -12 1 -3 -9 9 -9 10 -16 2 -26 -9 -10 -8 -13
2 -13 11 0 11 -2 -1 -10 -8 -5 -12 -10 -8 -10 4 0 3 -11 -2 -25 -6 -16 -6 -26
1 -31 7 -4 5 -12 -5 -23 -9 -10 -13 -21 -9 -26 5 -4 -1 -5 -11 -1 -16 5 -17 4
-6 -9 10 -12 10 -18 -1 -32 -12 -15 -12 -16 1 -8 12 7 13 6 3 -6 -6 -8 -10
-27 -9 -42 3 -22 1 -25 -11 -16 -11 10 -12 8 -7 -6 6 -14 4 -16 -7 -10 -8 4
-11 5 -7 0 4 -4 2 -15 -5 -23 -10 -13 -9 -15 7 -9 15 6 17 5 8 -6 -7 -8 -9
-17 -5 -20 3 -4 1 -7 -5 -7 -5 0 -13 6 -16 13 -4 8 -5 7 -5 -3 2 -32 -1 -41
-13 -34 -7 4 -10 4 -6 -1 4 -4 3 -14 -3 -22 -9 -9 -8 -13 0 -13 6 0 11 5 11
10 0 6 5 10 12 10 6 0 1 -12 -13 -27 -13 -14 -18 -23 -10 -18 9 5 12 4 7 -3
-4 -7 -15 -12 -24 -13 -11 0 -12 -3 -4 -6 16 -6 15 -23 -2 -23 -8 0 -12 -9
-11 -25 2 -16 -1 -23 -8 -18 -6 4 -8 0 -5 -9 4 -8 2 -21 -4 -29 -8 -11 -9 -11
-5 2 3 9 -1 16 -8 16 -10 0 -11 -7 -5 -23 9 -23 -9 -51 -24 -37 -4 4 -4 0 0
-10 3 -10 1 -17 -5 -17 -6 0 -11 -10 -11 -22 0 -19 -2 -20 -11 -8 -9 12 -10
10 -6 -8 4 -15 0 -25 -10 -29 -10 -4 -11 -8 -3 -13 8 -5 0 -11 -19 -18 -17 -6
-31 -16 -31 -23 0 -8 5 -8 18 1 9 7 -3 -6 -26 -29 -24 -22 -41 -41 -38 -41 3
0 -3 -9 -14 -20 -11 -11 -20 -25 -20 -31 0 -5 -4 -7 -10 -4 -5 3 -19 -9 -30
-27 -11 -18 -20 -27 -20 -20 0 7 -11 2 -26 -13 -14 -14 -30 -22 -37 -18 -7 4
-5 -2 3 -13 8 -10 11 -16 6 -12 -10 8 -66 -11 -66 -23 0 -5 -9 -9 -20 -9 -11
0 -20 -5 -20 -11 0 -5 -4 -7 -10 -4 -5 3 -10 2 -10 -4 0 -5 -9 -8 -20 -6 -11
2 -20 -1 -20 -6 0 -6 -6 -7 -12 -2 -23 14 -50 14 -42 1 5 -9 2 -9 -9 1 -9 7
-17 10 -17 6 0 -4 -6 -3 -12 2 -7 6 -21 9 -30 8 -10 -2 -18 1 -18 6 0 5 -5 9
-11 9 -5 0 -8 -4 -5 -8 3 -5 -1 -9 -9 -9 -8 0 -15 7 -15 16 0 14 -2 14 -10 1
-9 -13 -14 -7 -11 12 0 4 -10 3 -23 -2 -24 -9 -39 -4 -30 11 2 4 12 5 22 2 9
-3 14 -3 10 1 -11 13 -42 14 -57 2 -12 -9 -13 -8 -6 3 6 11 4 13 -8 8 -12 -4
-14 -2 -10 11 5 14 3 15 -7 5 -10 -9 -19 -9 -41 3 -33 17 -38 37 -23 100 3 16
7 39 8 52 0 12 5 22 9 22 5 0 6 4 3 9 -4 5 -2 11 4 13 5 1 11 12 13 23 2 11 9
31 16 44 7 13 8 20 2 17 -5 -4 1 13 14 36 28 48 31 62 13 53 -7 -4 -4 1 7 10
11 9 19 21 17 27 -1 5 3 16 9 24 7 8 9 17 6 21 -4 3 -1 11 6 17 8 6 21 31 31
56 10 25 25 61 34 80 8 19 15 38 14 43 -1 4 3 7 8 7 7 0 7 6 0 20 -8 16 -8 18
4 14 16 -6 52 51 47 75 -1 7 2 10 8 6 6 -3 11 1 11 10 0 16 28 65 44 76 5 4 5
12 2 18 -4 6 -2 11 4 11 7 0 10 7 6 15 -3 9 3 19 15 25 11 6 17 15 14 19 -3 5
2 11 10 15 8 3 15 12 15 21 0 9 11 28 24 42 13 14 32 43 43 64 10 21 21 39 26
39 4 0 7 6 7 14 0 8 3 16 8 18 4 2 23 26 42 53 19 28 42 59 52 69 10 11 18 25
18 32 0 7 9 16 20 19 11 3 20 10 20 15 0 5 18 28 40 50 22 23 37 46 34 52 -4
6 -3 8 2 5 6 -3 27 9 47 28 82 76 162 120 195 109 8 -2 20 -4 28 -4z m2474
-644 c0 -2 -8 -10 -17 -17 -16 -13 -17 -12 -4 4 13 16 21 21 21 13z m-3415
-86 c-3 -5 -10 -10 -16 -10 -5 0 -9 5 -9 10 0 6 7 10 16 10 8 0 12 -4 9 -10z
m1040 -41 c11 -16 1 -19 -13 -3 -7 8 -8 14 -3 14 5 0 13 -5 16 -11z m1040
-259 c4 -6 10 -8 14 -6 4 3 8 -1 8 -9 0 -19 -4 -19 -29 5 -12 11 -17 20 -10
20 6 0 14 -5 17 -10z m1466 -273 c-10 -9 -11 -8 -5 6 3 10 9 15 12 12 3 -3 0
-11 -7 -18z m154 -47 c-3 -5 -12 -10 -18 -10 -7 0 -6 4 3 10 19 12 23 12 15 0z
m-3082 -597 c-3 -7 -12 -13 -20 -13 -8 0 -12 4 -9 9 4 5 0 11 -6 14 -7 2 -1 4
13 3 17 -1 25 -6 22 -13z m-730 -27 c3 -8 3 -17 0 -20 -9 -9 -34 15 -27 25 8
13 21 11 27 -5z m3574 -92 c-3 -3 -12 -4 -19 -1 -8 3 -5 6 6 6 11 1 17 -2 13
-5z m-596 -186 c1 -7 0 -17 -1 -23 -2 -5 -2 -18 -2 -27 0 -10 -4 -18 -9 -18
-6 0 -7 -5 -4 -10 3 -6 0 -13 -8 -15 -8 -4 -13 -19 -12 -40 1 -19 -2 -32 -7
-29 -4 3 -5 11 -1 17 4 7 -2 5 -13 -3 -29 -22 -30 -24 -11 -17 25 9 22 -17 -5
-37 -13 -9 -17 -14 -10 -11 6 3 12 3 12 -2 0 -13 -14 -30 -30 -36 -12 -4 -11
-6 3 -6 10 -1 17 -8 16 -18 0 -11 -3 -13 -6 -5 -2 6 -12 12 -21 12 -12 0 -13
-3 -5 -8 17 -11 5 -50 -18 -57 -11 -4 -16 -12 -12 -21 4 -12 8 -12 20 3 13 16
13 16 3 -5 -8 -16 -17 -22 -28 -18 -13 5 -12 2 2 -9 11 -8 14 -15 7 -15 -7 0
-10 -4 -6 -9 3 -5 1 -13 -5 -16 -6 -4 -10 -3 -9 2 4 26 -5 33 -10 8 -4 -16
-12 -29 -18 -28 -7 2 -10 -6 -8 -17 2 -11 -2 -20 -8 -20 -7 -1 -1 -8 13 -16
l25 -15 -28 4 c-15 2 -30 0 -34 -6 -3 -5 -1 -7 5 -3 6 3 13 2 17 -4 3 -5 0
-10 -8 -10 -8 0 -22 -11 -31 -25 -15 -23 -15 -24 1 -18 14 4 15 3 7 -6 -6 -7
-20 -14 -30 -15 -20 -3 -32 -26 -13 -26 14 0 -80 -69 -131 -95 -37 -20 -150
-28 -147 -11 1 6 -2 10 -8 11 -5 0 -16 4 -24 9 -11 7 -12 6 -6 -5 8 -12 6 -12
-8 0 -9 7 -17 10 -18 5 0 -5 -4 1 -9 14 -5 12 -20 27 -32 32 -13 5 -17 9 -9 9
10 1 11 4 2 14 -12 16 -16 89 -7 131 13 55 77 158 134 214 74 72 172 138 287
192 50 23 113 53 140 67 28 13 58 25 68 27 9 1 20 5 23 9 11 11 24 8 25 -5z
m-2996 -38 c3 -6 -1 -7 -9 -4 -18 7 -21 14 -7 14 6 0 13 -4 16 -10z m-20 -150
c3 -6 -1 -7 -9 -4 -18 7 -21 14 -7 14 6 0 13 -4 16 -10z m-15 -138 c0 -9 -10
-23 -22 -31 -23 -14 -23 -14 -5 7 11 11 16 26 12 31 -3 6 -1 11 4 11 6 0 11
-8 11 -18z m2862 -129 c-6 -2 -10 -9 -7 -13 3 -5 1 -11 -4 -14 -7 -5 -8 11 -2
32 1 1 7 2 14 1 9 0 9 -2 -1 -6z m-787 -253 c-3 -5 -12 -10 -18 -10 -7 0 -6 4
3 10 19 12 23 12 15 0z"/>
<path d="M1110 2811 c0 -9 30 -24 36 -18 2 1 -6 8 -16 15 -11 7 -20 8 -20 3z"/>
<path d="M4350 3130 c-6 -11 -8 -20 -6 -20 3 0 10 9 16 20 6 11 8 20 6 20 -3
0 -10 -9 -16 -20z"/>
<path d="M4345 3089 c-4 -6 -5 -12 -2 -15 2 -3 7 2 10 11 7 17 1 20 -8 4z"/>
<path d="M2941 2586 c-10 -12 -8 -13 8 -9 12 3 18 9 15 14 -7 12 -10 11 -23
-5z"/>
<path d="M1630 2256 c0 -2 8 -10 18 -17 15 -13 16 -12 3 4 -13 16 -21 21 -21
13z"/>
</g>
</svg>
